{"title":"Fatima 2015 FRENCH 1080p WebHD H264-SiGeRiS","uid":15058206,"size":3285485235,"categoryP":"video","categoryS":"movies","magnet":"?xt=urn:btih:d126714a43d3eee18c440ddca50611b91f768d26&amp;dn=Fatima+2015+FRENCH+1080p+WebHD+H264-SiGeRiS&amp;tr=udp%3A%2F%2Ftracker.leechers-paradise.org%3A6969&amp;tr=udp%3A%2F%2Fzer0day.ch%3A1337&amp;tr=udp%3A%2F%2Fopen.demonii.com%3A1337&amp;tr=udp%3A%2F%2Ftracker.coppersurfer.tk%3A6969&amp;tr=udp%3A%2F%2Fexodus.desync.com%3A6969","seeders":2,"leechers":0,"uploader":"noriegaRJ","files":1,"time":1466743497,"description":"Title: Fatima\r\n\r\nRelease: Fatima 2015 FRENCH 1080p WebHD H264-SiGeRiS\r\n\r\n\r\nIMDB Link:  \nhttp://www.imdb.com/title/tt4466544/\r\n\r\n\r\nPlot: Fatima lives on her own with two daughters to support: 15-year old Souad, a teenager in revolt, and 18-year old Nesrine, who is starting medical school. Fatima speaks French poorly and is constantly frustrated by her daily interactions with her daughters. Her pride and joy, they are also a source of worry. To ensure the best possible future for them, she works odd hours as a cleaning woman. One day, she takes a fall on the stairs. On leave, Fatima begins to write to her daughters in Arabic that which she has never been able to express in French.\r\n\r\n\r\nFRENCH SUBTITLE INSIDE MKV FILE.\r\n\r\n\r\n\r\nGeneral\r\nComplete name                            : Fatima 2015 FRENCH 1080p WebHD H264-SiGeRiS\r\nFormat                                   : Matroska\r\nFormat version                           : Version 4 / Version 2\r\nFile size                                : 3.06 GiB\r\nDuration                                 : 1h 18mn\r\nOverall bit rate                         : 5 603 Kbps\r\nEncoded date                             : UTC 2016-02-24 03:57:29\r\nWriting application                      : mkvmerge v8.5.1 ('Where you lead I will follow') 64bit\r\nWriting library                          : libebml v1.3.3 + libmatroska v1.4.4\r\nDURATION                                 : 01:11:21.833000000\r\nNUMBER_OF_FRAMES                         : 291\r\nNUMBER_OF_BYTES                          : 10373\r\n_STATISTICS_WRITING_APP                  : mkvmerge v8.5.1 ('Where you lead I will follow') 64bit\r\n_STATISTICS_WRITING_DATE_UTC             : 2016-02-24 03:57:29\r\n_STATISTICS_TAGS                         : BPS DURATION NUMBER_OF_FRAMES NUMBER_OF_BYTES\r\n\r\nVideo\r\nID                                       : 1\r\nFormat                                   : AVC\r\nFormat/Info                              : Advanced Video Codec\r\nFormat profile                           :   \r\nFormat settings, CABAC                   : Yes\r\nFormat settings, ReFrames                : 4 frames\r\nCodec ID                                 : V_MPEG4/ISO/AVC\r\nDuration                                 : 1h 18mn\r\nBit rate                                 : 5 108 Kbps\r\nWidth                                    : 1 912 pixels\r\nHeight                                   : 1 028 pixels\r\nDisplay aspect ratio                     : 1.85:1\r\nFrame rate mode                          : Constant\r\nFrame rate                               : 24.000 fps\r\nColor space                              : YUV\r\nChroma subsampling                       : 4:2:0\r\nBit depth                                : 8 bits\r\nScan type                                : Progressive\r\nBits/(Pixel*Frame)                       : 0.108\r\nStream size                              : 2.79 GiB (91%)\r\nDefault                                  : Yes\r\nForced                                   : No\r\nColor primaries                          : BT.709\r\nTransfer characteristics                 : BT.709\r\nMatrix coefficients                      : BT.709\r\n\r\nAudio\r\nID                                       : 2\r\nFormat                                   : AC-3\r\nFormat/Info                              : Audio Coding 3\r\nMode extension                           : CM (complete main)\r\nFormat settings, Endianness              : Big\r\nCodec ID                                 : A_AC3\r\nDuration                                 : 1h 18mn\r\nBit rate mode                            : Constant\r\nBit rate                                 : 384 Kbps\r\nChannel count                            : 6 channels\r\nChannel positions                        : Front: L C R, Side: L R, LFE\r\nSampling rate                            : 48.0 KHz\r\nBit depth                                : 16 bits\r\nCompression mode                         : Lossy\r\nStream size                              : 215 MiB (7%)\r\nLanguage                                 : French\r\nDefault                                  : Yes\r\nForced                                   : No\r\n\r\nText\r\nID                                       : 3\r\nFormat                                   : UTF-8\r\nCodec ID                                 : S_TEXT/UTF8\r\nCodec ID/Info                            : UTF-8 Plain Text\r\nTitle                                    : full.fr\r\nLanguage                                 : French\r\nDefault                                  : Yes\r\nForced                                   : No\r\n\r\n\r\n\r\nThanks to those helping me seed. Leechers remember, the community depends on you. If nobody shares, the freebies go away. Remember, the only reason you can download this free movie is because others are generous enough to keep sharing it with you. If nobody shares, everybody loses, so even if its for an extra hour or two after you get it, remember, others want to see it too, and they can't without you.\r\n\r\n\r\nSEE MY OTHERS UPLOADS:                                                                                    \nhttp://thepiratebay.se/user/noriegaRJ\r\n\r\nAND SEE THIS ANOTHERS UPLOADS FROM &quot;HORiZON-ArtSubs&quot;:                                    \nhttp://thepiratebay.se/user/artsubs                                    \nhttp://thepiratebay.se/user/lletaif","torrent":{"xt":"urn:btih:d126714a43d3eee18c440ddca50611b91f768d26","amp;dn":"Fatima+2015+FRENCH+1080p+WebHD+H264-SiGeRiS","amp;tr":["udp%3A%2F%2Ftracker.leechers-paradise.org%3A6969","udp%3A%2F%2Fzer0day.ch%3A1337","udp%3A%2F%2Fopen.demonii.com%3A1337","udp%3A%2F%2Ftracker.coppersurfer.tk%3A6969","udp%3A%2F%2Fexodus.desync.com%3A6969"],"infoHash":"d126714a43d3eee18c440ddca50611b91f768d26","infoHashBuffer":{"type":"Buffer","data":[209,38,113,74,67,211,238,225,140,68,13,220,165,6,17,185,31,118,141,38]},"announce":[],"urlList":[]}}